<?xml version="1.0" encoding="UTF-8" standalone="no"?>
<svg width="27px" height="27px" viewBox="0 0 27 27" version="1.1" xmlns="http://www.w3.org/2000/svg" xmlns:xlink="http://www.w3.org/1999/xlink" xmlns:sketch="http://www.bohemiancoding.com/sketch/ns">
    <!-- Generator: Sketch 3.5.2 (25235) - http://www.bohemiancoding.com/sketch -->
    <title>btn-clear</title>
    <desc>Created with Sketch.</desc>
    <defs></defs>
    <g id="Page-1" stroke="none" stroke-width="1" fill="none" fill-rule="evenodd" sketch:type="MSPage">
        <g id="btn-clear" sketch:type="MSArtboardGroup" stroke="#FFFFFF" fill="#FE533A">
            <path d="M14.386,22.72 C16.7,22.72 18.936,21.914 20.704,20.198 C20.886,20.016 20.938,19.678 20.73,19.496 L19.534,18.326 C19.378,18.196 19.144,18.17 18.91,18.352 C17.662,19.314 16.336,20.068 14.438,20.068 C10.72,20.068 7.886,16.974 7.886,13.334 C7.886,9.694 10.694,6.574 14.412,6.574 C16.024,6.574 17.688,7.25 18.91,8.316 C19.144,8.55 19.378,8.55 19.56,8.316 L20.704,7.146 C20.912,6.938 20.912,6.626 20.678,6.418 C18.91,4.884 17.012,4 14.386,4 C9.186,4 5,8.186 5,13.386 C5,18.586 9.186,22.72 14.386,22.72 Z" id="C" sketch:type="MSShapeGroup"></path>
        </g>
    </g>
</svg>