<?xml version="1.0" encoding="UTF-8" standalone="no"?>
<svg width="33px" height="27px" viewBox="0 0 33 27" version="1.1" xmlns="http://www.w3.org/2000/svg" xmlns:xlink="http://www.w3.org/1999/xlink" xmlns:sketch="http://www.bohemiancoding.com/sketch/ns">
    <!-- Generator: Sketch 3.5.2 (25235) - http://www.bohemiancoding.com/sketch -->
    <title>btn-confirm</title>
    <desc>Created with Sketch.</desc>
    <defs></defs>
    <g id="Page-1" stroke="none" stroke-width="1" fill="none" fill-rule="evenodd" sketch:type="MSPage">
        <g id="btn-confirm" sketch:type="MSArtboardGroup" stroke="#FFFFFF" fill="#60B7D7">
            <path d="M30.8557346,4.76202254 L27.5556624,2.14505151 C27.4534744,2.06043813 27.3272421,2 27.1829767,2 C27.0387112,2 26.9064679,2.06043813 26.8042799,2.15109532 L14.8001924,17.6595195 C14.8001924,17.6595195 10.08151,13.0964407 9.94926665,12.9634768 C9.81702332,12.8305129 9.64270257,12.6068918 9.37821592,12.6068918 C9.11372926,12.6068918 8.99350805,12.79425 8.85525367,12.9332577 C8.75306564,13.0420463 7.06996874,14.8189274 6.24044241,15.7013241 C6.19235393,15.7557184 6.16229863,15.7859374 6.12022121,15.8282441 C6.04808848,15.930989 6,16.0458214 6,16.1727415 C6,16.3057054 6.04808848,16.414494 6.12022121,16.5172388 L6.2885309,16.674378 C6.2885309,16.674378 14.661938,24.7609997 14.8001924,24.9000074 C14.9384467,25.0390151 15.1067564,25.2142857 15.3532099,25.2142857 C15.5936523,25.2142857 15.7920173,24.9544018 15.9062275,24.8395693 L30.8797788,5.49936772 C30.9519115,5.3966229 31,5.28179046 31,5.14882657 C31,4.99773125 30.9398894,4.87081117 30.8557346,4.76202254 L30.8557346,4.76202254 Z" id="Shape" sketch:type="MSShapeGroup"></path>
        </g>
    </g>
</svg>