<?xml version="1.0" encoding="UTF-8" standalone="no"?>
<svg width="50px" height="50px" viewBox="0 0 50 50" version="1.1" xmlns="http://www.w3.org/2000/svg" xmlns:xlink="http://www.w3.org/1999/xlink" xmlns:sketch="http://www.bohemiancoding.com/sketch/ns">
    <!-- Generator: Sketch 3.5.2 (25235) - http://www.bohemiancoding.com/sketch -->
    <title>menu-settings</title>
    <desc>Created with Sketch.</desc>
    <defs></defs>
    <g id="Page-1" stroke="none" stroke-width="1" fill="none" fill-rule="evenodd" sketch:type="MSPage">
        <g id="menu-settings" sketch:type="MSArtboardGroup">
            <rect id="bg" fill-opacity="0" fill="#D8D8D8" sketch:type="MSShapeGroup" x="0" y="0" width="50" height="50"></rect>
            <path d="M32.1593316,25.98 C32.1993316,25.66 32.2293316,25.34 32.2293316,25 C32.2293316,24.66 32.1993316,24.34 32.1593316,24.02 L34.2693316,22.37 C34.4593316,22.22 34.5093316,21.95 34.3893316,21.73 L32.3893316,18.27 C32.2693316,18.05 31.9993316,17.97 31.7793316,18.05 L29.2893316,19.05 C28.7693316,18.65 28.2093316,18.32 27.5993316,18.07 L27.2193316,15.42 C27.1893316,15.18 26.9793316,15 26.7293316,15 L22.7293316,15 C22.4793316,15 22.2693316,15.18 22.2393316,15.42 L21.8593316,18.07 C21.2493316,18.32 20.6893316,18.66 20.1693316,19.05 L17.6793316,18.05 C17.4493316,17.96 17.1893316,18.05 17.0693316,18.27 L15.0693316,21.73 C14.9393316,21.95 14.9993316,22.22 15.1893316,22.37 L17.2993316,24.02 C17.2593316,24.34 17.2293316,24.67 17.2293316,25 C17.2293316,25.33 17.2593316,25.66 17.2993316,25.98 L15.1893316,27.63 C14.9993316,27.78 14.9493316,28.05 15.0693316,28.27 L17.0693316,31.73 C17.1893316,31.95 17.4593316,32.03 17.6793316,31.95 L20.1693316,30.95 C20.6893316,31.35 21.2493316,31.68 21.8593316,31.93 L22.2393316,34.58 C22.2693316,34.82 22.4793316,35 22.7293316,35 L26.7293316,35 C26.9793316,35 27.1893316,34.82 27.2193316,34.58 L27.5993316,31.93 C28.2093316,31.68 28.7693316,31.34 29.2893316,30.95 L31.7793316,31.95 C32.0093316,32.04 32.2693316,31.95 32.3893316,31.73 L34.3893316,28.27 C34.5093316,28.05 34.4593316,27.78 34.2693316,27.63 L32.1593316,25.98 L32.1593316,25.98 Z M24.7293316,28.5 C22.7993316,28.5 21.2293316,26.93 21.2293316,25 C21.2293316,23.07 22.7993316,21.5 24.7293316,21.5 C26.6593316,21.5 28.2293316,23.07 28.2293316,25 C28.2293316,26.93 26.6593316,28.5 24.7293316,28.5 L24.7293316,28.5 Z" id="Shape" fill-opacity="0.87" fill="#373737" sketch:type="MSShapeGroup"></path>
        </g>
    </g>
</svg>