<?xml version="1.0" encoding="UTF-8" standalone="no"?>
<svg width="50px" height="50px" viewBox="0 0 50 50" version="1.1" xmlns="http://www.w3.org/2000/svg" xmlns:xlink="http://www.w3.org/1999/xlink" xmlns:sketch="http://www.bohemiancoding.com/sketch/ns">
    <!-- Generator: Sketch 3.5.2 (25235) - http://www.bohemiancoding.com/sketch -->
    <title>menu-rate-calculation</title>
    <desc>Created with Sketch.</desc>
    <defs></defs>
    <g id="Page-1" stroke="none" stroke-width="1" fill="none" fill-rule="evenodd" sketch:type="MSPage">
        <g id="menu-rate-calculation" sketch:type="MSArtboardGroup">
            <rect id="bg" fill-opacity="0" fill="#D8D8D8" sketch:type="MSShapeGroup" x="0" y="0" width="50" height="50"></rect>
            <path d="M31.3333333,15 L19.6666667,15 C18.7447917,15 18,15.7447917 18,16.6666667 L18,33.3333333 C18,34.2552083 18.7447917,35 19.6666667,35 L31.3333333,35 C32.2552083,35 33,34.2552083 33,33.3333333 L33,16.6666667 C33,15.7447917 32.2552083,15 31.3333333,15 L31.3333333,15 Z M30.9166667,26.25 L30.9166667,32.9166667 L28.4166667,32.9166667 L28.4166667,26.25 L30.9166667,26.25 L30.9166667,26.25 Z M30.9166667,22.0833333 L30.9166667,24.5833333 L28.4166667,24.5833333 L28.4166667,22.0833333 L30.9166667,22.0833333 L30.9166667,22.0833333 Z M26.75,30.4166667 L26.75,32.9166667 L24.25,32.9166667 L24.25,30.4166667 L26.75,30.4166667 L26.75,30.4166667 Z M26.75,26.25 L26.75,28.75 L24.25,28.75 L24.25,26.25 L26.75,26.25 L26.75,26.25 Z M26.75,22.0833333 L26.75,24.5833333 L24.25,24.5833333 L24.25,22.0833333 L26.75,22.0833333 L26.75,22.0833333 Z M22.5833333,30.4166667 L22.5833333,32.9166667 L20.0833333,32.9166667 L20.0833333,30.4166667 L22.5833333,30.4166667 L22.5833333,30.4166667 Z M22.5833333,26.25 L22.5833333,28.75 L20.0833333,28.75 L20.0833333,26.25 L22.5833333,26.25 L22.5833333,26.25 Z M22.5833333,22.0833333 L22.5833333,24.5833333 L20.0833333,24.5833333 L20.0833333,22.0833333 L22.5833333,22.0833333 L22.5833333,22.0833333 Z M20.0833333,19.5833333 L20.0833333,17.0833333 L30.9166667,17.0833333 L30.9166667,19.5833333 L20.0833333,19.5833333 L20.0833333,19.5833333 Z" id="Shape" fill-opacity="0.87" fill="#373737" sketch:type="MSShapeGroup"></path>
        </g>
    </g>
</svg>