<?xml version="1.0" encoding="UTF-8" standalone="no"?>
<svg width="50px" height="50px" viewBox="0 0 50 50" version="1.1" xmlns="http://www.w3.org/2000/svg" xmlns:xlink="http://www.w3.org/1999/xlink" xmlns:sketch="http://www.bohemiancoding.com/sketch/ns">
    <!-- Generator: Sketch 3.5.2 (25235) - http://www.bohemiancoding.com/sketch -->
    <title>menu-messages</title>
    <desc>Created with Sketch.</desc>
    <defs></defs>
    <g id="Page-1" stroke="none" stroke-width="1" fill="none" fill-rule="evenodd" sketch:type="MSPage">
        <g id="menu-messages" sketch:type="MSArtboardGroup">
            <rect id="bg" fill-opacity="0" fill="#D8D8D8" sketch:type="MSShapeGroup" x="0" y="0" width="50" height="50"></rect>
            <path d="M26.8317308,30.2644231 C26.7067308,30.1778846 26.4855769,30.0480769 25.9903846,30.0480769 L20.4086538,30.0480769 C18.7403846,30.0480769 17.3076923,28.7932692 17.3076923,27.2019231 L17.3076923,22.3557692 L17.2211538,22.3557692 C15.9567308,22.3557692 15,23.3413462 15,24.5432692 L15,30.7403846 C15,31.9423077 16.0288462,32.6923077 17.2932692,32.6923077 L18.0769231,32.6923077 L18.0769231,35 L20.6298077,32.8365385 C20.7211538,32.7692308 20.8846154,32.6923077 21.2644231,32.6923077 L25.5817308,32.6923077 C26.6875,32.6923077 27.8605769,32.1442308 28.0769231,31.1538462 L26.8317308,30.2644231 Z M31.9711538,15 L21.5240385,15 C19.8557692,15 18.8461538,16.2884615 18.8461538,17.875 L18.8461538,21.2259615 L18.8461538,25.9615385 C18.8461538,27.5528846 20.1923077,28.8461538 21.8605769,28.8461538 L26.7211538,28.8461538 C27.2211538,28.8461538 27.4423077,28.9567308 27.5625,29.0480769 L31.1538462,31.9230769 L31.1538462,28.8461538 L31.9711538,28.8461538 C33.6442308,28.8461538 35,27.5528846 35,25.9663462 L35,17.875 C35,16.2884615 33.6442308,15 31.9711538,15 Z" id="Shape" fill="#373737" sketch:type="MSShapeGroup"></path>
        </g>
    </g>
</svg>