<?xml version="1.0" encoding="UTF-8" standalone="no"?>
<svg width="50px" height="50px" viewBox="0 0 50 50" version="1.1" xmlns="http://www.w3.org/2000/svg" xmlns:xlink="http://www.w3.org/1999/xlink" xmlns:sketch="http://www.bohemiancoding.com/sketch/ns">
    <!-- Generator: Sketch 3.5.2 (25235) - http://www.bohemiancoding.com/sketch -->
    <title>menu-explore</title>
    <desc>Created with Sketch.</desc>
    <defs></defs>
    <g id="Page-1" stroke="none" stroke-width="1" fill="none" fill-rule="evenodd" sketch:type="MSPage">
        <g id="menu-explore" sketch:type="MSArtboardGroup">
            <rect id="bg" fill-opacity="0" fill="#D8D8D8" sketch:type="MSShapeGroup" x="0" y="0" width="50" height="50"></rect>
            <path d="M25,23.9 C24.39,23.9 23.9,24.39 23.9,25 C23.9,25.61 24.39,26.1 25,26.1 C25.61,26.1 26.1,25.61 26.1,25 C26.1,24.39 25.61,23.9 25,23.9 L25,23.9 Z M25,15 C19.48,15 15,19.48 15,25 C15,30.52 19.48,35 25,35 C30.52,35 35,30.52 35,25 C35,19.48 30.52,15 25,15 L25,15 Z M27.19,27.19 L19,31 L22.81,22.81 L31,19 L27.19,27.19 L27.19,27.19 Z" id="Shape" fill="#373737" sketch:type="MSShapeGroup"></path>
        </g>
    </g>
</svg>